<?xml version="1.0" encoding="UTF-8"?>
<svg id="Capa_1" data-name="Capa 1" xmlns="http://www.w3.org/2000/svg" viewBox="0 0 195.37 63.11">
  <defs>
    <style>
      .cls-1 {
        fill: #2a52cb;
      }
    </style>
  </defs>
  <path class="cls-1" d="M30.34.25v10.47c0,3.54,2.87,6.4,6.4,6.4h4.52V.25h-10.92Z"/>
  <path d="M88.89,63.11h-4.31V14.63h10.42v42.36c0,3.38-2.74,6.11-6.11,6.11Z"/>
  <path d="M28.78,17.55H10.92V.16H0v48.14h10.92v-19.83h19.49v19.79h10.92v-18.15c0-6.93-5.62-12.55-12.55-12.55Z"/>
  <path d="M57,49.1c-1.85,0-3.53-.27-5.06-.81-1.52-.54-2.84-1.32-3.95-2.32-1.11-1-1.97-2.21-2.58-3.62-.61-1.41-.92-2.99-.92-4.74,0-3.49,1.27-6.2,3.81-8.15,2.54-1.95,6.2-3.06,10.98-3.34l9.24-.55v-3.12c0-1.59-.55-2.82-1.64-3.69-1.1-.87-2.7-1.3-4.8-1.3-1.82,0-3.32.3-4.5.9-1.18.6-1.97,1.48-2.39,2.63h-9.28c.16-1.75.68-3.34,1.54-4.76.87-1.42,2.03-2.63,3.48-3.64,1.45-1,3.17-1.77,5.14-2.3,1.97-.53,4.16-.8,6.56-.8s4.76.29,6.73.88c1.97.59,3.63,1.44,4.97,2.54,1.34,1.11,2.36,2.46,3.06,4.07.7,1.6,1.06,3.42,1.06,5.45v26.07h-9.76v-4.99h-.62c-.99,1.75-2.46,3.12-4.41,4.1-1.95.98-4.17,1.47-6.67,1.47ZM60.33,41.52c1.18,0,2.26-.17,3.25-.52.99-.35,1.86-.83,2.6-1.45.74-.62,1.32-1.35,1.73-2.18.42-.83.62-1.73.62-2.7v-2.8l-7.72.48c-4.29.3-6.44,1.84-6.44,4.61,0,1.43.55,2.55,1.66,3.36,1.11.81,2.54,1.21,4.29,1.21Z"/>
  <path d="M100.71,10.32h9.76s0,6.13,0,6.13h.62c.88-2.17,2.27-3.87,4.17-5.11,1.9-1.23,4.28-1.85,7.12-1.85,4.25,0,7.48,1.25,9.71,3.74,2.23,2.49,3.34,6.02,3.34,10.6v24.69h-10.08v-22.3c0-2.65-.57-4.66-1.71-6.01-1.14-1.35-2.91-2.03-5.32-2.03-1.18,0-2.23.2-3.15.59-.92.39-1.71.95-2.37,1.68-.66.73-1.16,1.6-1.51,2.63-.35,1.03-.52,2.16-.52,3.41v22.02h-10.08V10.32Z"/>
  <path d="M152.54,49.1c-1.85,0-3.53-.27-5.06-.81-1.52-.54-2.84-1.32-3.95-2.32-1.11-1-1.97-2.21-2.58-3.62-.61-1.41-.92-2.99-.92-4.74,0-3.49,1.27-6.2,3.81-8.15,2.54-1.95,6.2-3.06,10.98-3.34l9.24-.55v-3.12c0-1.59-.55-2.82-1.64-3.69-1.1-.87-2.7-1.3-4.8-1.3-1.82,0-3.32.3-4.5.9-1.18.6-1.97,1.48-2.39,2.63h-9.28c.16-1.75.68-3.34,1.54-4.76.87-1.42,2.03-2.63,3.48-3.64,1.45-1,3.17-1.77,5.14-2.3,1.97-.53,4.16-.8,6.56-.8s4.76.29,6.73.88c1.97.59,3.63,1.44,4.97,2.54,1.34,1.11,2.36,2.46,3.06,4.07.7,1.6,1.06,3.42,1.06,5.45v26.07h-9.76v-4.99h-.62c-.99,1.75-2.46,3.12-4.41,4.1-1.95.98-4.17,1.47-6.67,1.47ZM155.86,41.52c1.18,0,2.26-.17,3.25-.52.99-.35,1.86-.83,2.6-1.45.74-.62,1.32-1.35,1.73-2.18.42-.83.62-1.73.62-2.7v-2.8l-7.72.48c-4.29.3-6.44,1.84-6.44,4.61,0,1.43.55,2.55,1.66,3.36,1.11.81,2.54,1.21,4.29,1.21Z"/>
  <path d="M184.23.51h5.03v48h-10.08V5.56c0-2.79,2.26-5.05,5.05-5.05Z"/>
  <circle cx="89.73" cy="5.45" r="5.45"/>
  <path d="M191.37,46.52c0-1.1.79-1.98,1.98-1.98s2.02.87,2.02,1.97-.77,1.99-2.01,1.99-2-.86-2-1.98ZM194.87,46.52c0-.88-.56-1.5-1.52-1.5s-1.48.64-1.48,1.51.56,1.51,1.5,1.51,1.5-.64,1.5-1.52ZM192.65,45.5h.86c.45,0,.71.33.71.67,0,.29-.15.52-.32.59l.38.79h-.52l-.29-.68h-.34v.68h-.49v-2.05ZM193.45,46.45c.18,0,.26-.13.26-.26,0-.14-.09-.26-.26-.26h-.31v.52h.31Z"/>
</svg>