<?xml version="1.0" encoding="UTF-8"?>
<svg id="Capa_1" data-name="Capa 1" xmlns="http://www.w3.org/2000/svg" viewBox="0 0 308.23 99.56">
  <defs>
    <style>
      .cls-1 {
        fill: #fff;
      }
    </style>
  </defs>
  <path class="cls-1" d="M47.87.39v16.51c0,5.58,4.52,10.1,10.1,10.1h7.12V.39h-17.23Z"/>
  <path class="cls-1" d="M140.23,99.56h-6.8V23.09h16.44v66.83c0,5.33-4.32,9.64-9.64,9.64Z"/>
  <path class="cls-1" d="M45.41,27.69h-28.18V.25H0v75.96h17.23v-31.29h30.76v31.21h17.23v-28.64c0-10.94-8.87-19.8-19.8-19.8Z"/>
  <path class="cls-1" d="M89.93,77.46c-2.91,0-5.57-.43-7.98-1.28-2.4-.86-4.48-2.08-6.23-3.66-1.75-1.58-3.11-3.49-4.07-5.71-.97-2.22-1.45-4.72-1.45-7.48,0-5.5,2-9.79,6.01-12.86,4.01-3.08,9.78-4.83,17.32-5.27l14.59-.87v-4.92c0-2.51-.87-4.45-2.59-5.82-1.73-1.37-4.25-2.05-7.57-2.05-2.88,0-5.24.47-7.1,1.42-1.86.95-3.11,2.33-3.77,4.15h-14.64c.25-2.77,1.07-5.27,2.43-7.51,1.37-2.24,3.2-4.15,5.49-5.74,2.29-1.58,5-2.79,8.11-3.63,3.11-.84,6.56-1.26,10.35-1.26s7.51.46,10.62,1.39c3.11.93,5.73,2.27,7.84,4.02,2.11,1.75,3.72,3.89,4.83,6.42,1.11,2.53,1.67,5.4,1.67,8.6v41.13h-15.4v-7.87h-.98c-1.57,2.77-3.89,4.93-6.96,6.47-3.08,1.55-6.58,2.32-10.52,2.32ZM95.18,65.5c1.86,0,3.57-.27,5.13-.82,1.57-.55,2.93-1.31,4.1-2.29,1.17-.98,2.08-2.13,2.73-3.44.66-1.31.98-2.73.98-4.26v-4.42l-12.18.76c-6.77.47-10.16,2.9-10.16,7.27,0,2.26.87,4.02,2.62,5.3,1.75,1.28,4.01,1.91,6.77,1.91Z"/>
  <path class="cls-1" d="M158.88,16.28h15.4s0,9.67,0,9.67h.98c1.38-3.42,3.58-6.11,6.58-8.06,3-1.95,6.75-2.92,11.23-2.92,6.7,0,11.81,1.97,15.32,5.9,3.51,3.93,5.27,9.51,5.27,16.72v38.95h-15.9v-35.18c0-4.19-.9-7.35-2.7-9.48-1.8-2.13-4.6-3.2-8.39-3.2-1.86,0-3.51.31-4.97.93-1.46.62-2.7,1.5-3.74,2.65-1.04,1.15-1.83,2.53-2.38,4.15-.55,1.62-.82,3.41-.82,5.38v34.74h-15.9V16.28Z"/>
  <path class="cls-1" d="M240.65,77.46c-2.91,0-5.57-.43-7.98-1.28-2.4-.86-4.48-2.08-6.23-3.66-1.75-1.58-3.11-3.49-4.07-5.71-.97-2.22-1.45-4.72-1.45-7.48,0-5.5,2-9.79,6.01-12.86,4.01-3.08,9.78-4.83,17.32-5.27l14.59-.87v-4.92c0-2.51-.87-4.45-2.59-5.82-1.73-1.37-4.25-2.05-7.57-2.05-2.88,0-5.24.47-7.1,1.42-1.86.95-3.11,2.33-3.77,4.15h-14.64c.25-2.77,1.07-5.27,2.43-7.51,1.37-2.24,3.2-4.15,5.49-5.74,2.29-1.58,5-2.79,8.11-3.63,3.11-.84,6.56-1.26,10.35-1.26s7.51.46,10.62,1.39c3.11.93,5.73,2.27,7.84,4.02,2.11,1.75,3.72,3.89,4.83,6.42,1.11,2.53,1.67,5.4,1.67,8.6v41.13h-15.4v-7.87h-.98c-1.57,2.77-3.89,4.93-6.96,6.47-3.08,1.55-6.58,2.32-10.52,2.32ZM245.89,65.5c1.86,0,3.57-.27,5.13-.82,1.57-.55,2.93-1.31,4.1-2.29,1.17-.98,2.08-2.13,2.73-3.44.66-1.31.98-2.73.98-4.26v-4.42l-12.18.76c-6.77.47-10.16,2.9-10.16,7.27,0,2.26.87,4.02,2.62,5.3,1.75,1.28,4.01,1.91,6.77,1.91Z"/>
  <path class="cls-1" d="M290.65.81h7.93v75.72h-15.9V8.78c0-4.4,3.57-7.96,7.96-7.96Z"/>
  <circle class="cls-1" cx="141.57" cy="8.61" r="8.61"/>
  <path class="cls-1" d="M301.91,73.4c0-1.73,1.24-3.12,3.12-3.12s3.19,1.38,3.19,3.11-1.21,3.13-3.16,3.13-3.15-1.36-3.15-3.12ZM307.43,73.38c0-1.39-.89-2.37-2.4-2.37s-2.34,1.01-2.34,2.38.89,2.38,2.37,2.38,2.37-1.01,2.37-2.4ZM303.94,71.79h1.36c.71,0,1.12.52,1.12,1.06,0,.46-.24.81-.5.93l.61,1.24h-.83l-.46-1.08h-.53v1.08h-.77v-3.24ZM305.2,73.28c.28,0,.41-.21.41-.41,0-.22-.15-.41-.41-.41h-.49v.83h.49Z"/>
</svg>